<?xml version="1.0" encoding="UTF-8"?>
<svg id="Layer_1" data-name="Layer 1" xmlns="http://www.w3.org/2000/svg" viewBox="0 0 183.15 78.51">
  <defs>
    <style>
      .cls-1 {
        letter-spacing: -.02em;
      }

      .cls-2 {
        font-family: Poppins-Medium, Poppins;
        font-size: 45px;
        font-weight: 500;
      }

      .cls-2, .cls-3 {
        fill: #003b71;
      }

      .cls-4 {
        letter-spacing: 0em;
      }

      .cls-5 {
        fill: #139dd8;
      }

      .cls-5, .cls-3 {
        stroke-width: 0px;
      }
    </style>
  </defs>
  <text class="cls-2" transform="translate(75.13 56.24)"><tspan class="cls-1" x="0" y="0">WE</tspan><tspan class="cls-4" x="66.62" y="0">B</tspan></text>
  <g>
    <polygon class="cls-5" points="49.24 46.74 33.19 46.74 40.47 38.07 57.91 38.07 49.24 46.74"/>
    <polygon class="cls-5" points="49.24 46.74 49.24 64.49 57.91 54.16 57.91 38.07 49.24 46.74"/>
    <path class="cls-3" d="M20.91,61.59l6.23-7.4c-1.59-1.24-2.89-2.81-3.89-4.7-1.34-2.52-2-5.49-2-8.9s.66-6.23,1.97-8.75c1.31-2.53,3.13-4.48,5.47-5.84,2.33-1.36,5.01-2.05,8.02-2.05,2.73,0,5.11.56,7.14,1.68,1.68.92,3.05,2.18,4.13,3.78l6.84-8.12c-.96-.93-2.01-1.79-3.17-2.56-4.23-2.8-9.21-4.2-14.95-4.2-4.86,0-9.27,1.1-13.24,3.32-3.96,2.21-7.07,5.3-9.34,9.26-2.26,3.96-3.39,8.46-3.39,13.46s1.13,9.49,3.39,13.43c1.75,3.04,4.01,5.56,6.77,7.58Z"/>
  </g>
</svg>